<?xml version="1.0" encoding="UTF-8" standalone="no"?>
<svg
   xmlns:dc="http://purl.org/dc/elements/1.1/"
   xmlns:cc="http://creativecommons.org/ns#"
   xmlns:rdf="http://www.w3.org/1999/02/22-rdf-syntax-ns#"
   xmlns:svg="http://www.w3.org/2000/svg"
   xmlns="http://www.w3.org/2000/svg"
   viewBox="0 0 560 420"
   height="420"
   width="560"
   xml:space="preserve"
   id="svg2"
   version="1.1"><metadata
     id="metadata8"><rdf:RDF><cc:Work
         rdf:about=""><dc:format>image/svg+xml</dc:format><dc:type
           rdf:resource="http://purl.org/dc/dcmitype/StillImage" /></cc:Work></rdf:RDF></metadata><defs
     id="defs6" /><g
     transform="matrix(1.3333333,0,0,-1.3333333,0,420)"
     id="g10"><g
       transform="scale(0.1)"
       id="g12"><path
         id="path14"
         style="fill:#ffffff;fill-opacity:1;fill-rule:nonzero;stroke:none"
         d="M 0,0 H 4200 V 3150 H 0 Z" /><path
         id="path16"
         style="fill:#ffffff;fill-opacity:1;fill-rule:nonzero;stroke:none"
         d="M 0,0 H 4200 V 3150 H 0 Z" /><path
         id="path18"
         style="fill:#ffffff;fill-opacity:1;fill-rule:nonzero;stroke:none"
         d="m 547.5,435 h 3255 v 2482.5 h -3255 z" /><path
         id="path20"
         style="fill:none;stroke:#3d26a8;stroke-width:5.00250006;stroke-linecap:butt;stroke-linejoin:round;stroke-miterlimit:10;stroke-dasharray:none;stroke-opacity:1"
         d="m 3649.82,435 26.66,73.695" /><path
         id="path22"
         style="fill:none;stroke:#3d26a8;stroke-width:5.00250006;stroke-linecap:butt;stroke-linejoin:round;stroke-miterlimit:10;stroke-dasharray:none;stroke-opacity:1"
         d="m 3764.67,755.738 7.64,21.676 30.19,85.606 v 0" /><path
         id="path24"
         style="fill:none;stroke:#4751f3;stroke-width:5.00250006;stroke-linecap:butt;stroke-linejoin:round;stroke-miterlimit:10;stroke-dasharray:none;stroke-opacity:1"
         d="m 3320.39,435 34.56,85.605 25.71,63.692" /><path
         id="path26"
         style="fill:none;stroke:#4751f3;stroke-width:5.00250006;stroke-linecap:butt;stroke-linejoin:round;stroke-miterlimit:10;stroke-dasharray:none;stroke-opacity:1"
         d="m 3476.39,828.52 13.17,34.5 32.67,85.601 29.88,78.329 2.71,7.28 31.79,85.59 31.8,85.61 17.17,46.23 14.24,39.38 30.97,85.6 30.97,85.61 7.28,20.11 23.09,65.48 30.18,85.61 30.19,85.6 v 0" /><path
         id="path28"
         style="fill:none;stroke:#2d87f6;stroke-width:5.00250006;stroke-linecap:butt;stroke-linejoin:round;stroke-miterlimit:10;stroke-dasharray:none;stroke-opacity:1"
         d="m 2947.67,435 20.22,42.801 19.54,42.804 7.2,15.766" /><path
         id="path30"
         style="fill:none;stroke:#2d87f6;stroke-width:5.00250006;stroke-linecap:butt;stroke-linejoin:round;stroke-miterlimit:10;stroke-dasharray:none;stroke-opacity:1"
         d="m 3102.22,775.613 0.79,1.801 31.79,71.91 5.88,13.696 36.69,85.601 36.68,85.609 4.22,9.84 31.5,75.75 35.59,85.61 16.37,39.37 18.66,46.24 34.56,85.6 30.24,74.9 4.2,10.71 33.59,85.59 33.58,85.61 12.09,30.82 20.91,54.78 32.67,85.61 23.21,60.82" /><path
         id="path32"
         style="fill:none;stroke:#2d87f6;stroke-width:5.00250006;stroke-linecap:butt;stroke-linejoin:round;stroke-miterlimit:10;stroke-dasharray:none;stroke-opacity:1"
         d="m 3636.89,2111.33 12.93,35.74 30.97,85.61 30.97,85.59 7.28,20.12 23.09,65.49 30.18,85.6 30.19,85.61 v 0" /><path
         id="path34"
         style="fill:none;stroke:#12b0d6;stroke-width:5.00250006;stroke-linecap:butt;stroke-linejoin:round;stroke-miterlimit:10;stroke-dasharray:none;stroke-opacity:1"
         d="m 2507.99,435 42.59,74.902 5.84,10.703 25.9,47.43" /><path
         id="path36"
         style="fill:none;stroke:#12b0d6;stroke-width:5.00250006;stroke-linecap:butt;stroke-linejoin:round;stroke-miterlimit:10;stroke-dasharray:none;stroke-opacity:1"
         d="m 2705.9,799.434 11.6,22.062 21.03,41.524 43.36,85.601 19.07,37.668 23.43,47.941 41.83,85.59 18.21,37.24 22.83,48.37 40.41,85.61 20.22,42.8 19.54,42.8 39.09,85.61 24.82,54.35 13.82,31.24 37.85,85.61 31.79,71.91 5.88,13.69 36.69,85.61 26.06,60.82" /><path
         id="path38"
         style="fill:none;stroke:#12b0d6;stroke-width:5.00250006;stroke-linecap:butt;stroke-linejoin:round;stroke-miterlimit:10;stroke-dasharray:none;stroke-opacity:1"
         d="m 3304.44,2107.56 15.95,39.51 34.56,85.61 30.24,74.9 4.2,10.69 33.59,85.61 33.58,85.6 12.09,30.82 20.91,54.79 32.67,85.6 29.88,78.33 2.71,7.27 31.79,85.6 31.8,85.61" /><path
         id="path40"
         style="fill:none;stroke:#37c896;stroke-width:5.00250006;stroke-linecap:butt;stroke-linejoin:round;stroke-miterlimit:10;stroke-dasharray:none;stroke-opacity:1"
         d="m 1943.18,435 23.17,29.109 42.53,56.496 33.09,43.95" /><path
         id="path42"
         style="fill:none;stroke:#37c896;stroke-width:5.00250006;stroke-linecap:butt;stroke-linejoin:round;stroke-miterlimit:10;stroke-dasharray:none;stroke-opacity:1"
         d="m 2192.69,779.266 24.04,35.382 31.34,48.372 52.12,80.464 3.18,5.137 52.99,85.609 27.3,44.08 24.6,41.51 50.74,85.61 8.12,13.7 40.87,71.91 42.59,74.9 5.84,10.7 46.76,85.61 30.86,56.49 15.3,29.1 44.99,85.61 23.17,44.08 21.03,41.52 40.36,79.69" /><path
         id="path44"
         style="fill:none;stroke:#37c896;stroke-width:5.00250006;stroke-linecap:butt;stroke-linejoin:round;stroke-miterlimit:10;stroke-dasharray:none;stroke-opacity:1"
         d="m 2894.41,2034.25 12.85,27.21 40.41,85.61 20.22,42.8 19.54,42.81 39.09,85.59 24.82,54.36 13.82,31.25 37.85,85.6 31.79,71.91 5.88,13.7 36.69,85.6 36.68,85.6 4.22,9.85 31.5,75.75 35.59,85.61" /><path
         id="path46"
         style="fill:none;stroke:#aac639;stroke-width:5.00250006;stroke-linecap:butt;stroke-linejoin:round;stroke-miterlimit:10;stroke-dasharray:none;stroke-opacity:1"
         d="m 908.445,435 56.364,22.262 83.461,38.945 45.3,24.398 4.86,2.61" /><path
         id="path48"
         style="fill:none;stroke:#aac639;stroke-width:5.00250006;stroke-linecap:butt;stroke-linejoin:round;stroke-miterlimit:10;stroke-dasharray:none;stroke-opacity:1"
         d="m 1361.18,696.145 20.93,15.785 79.32,65.484 4.14,3.426 83.47,74.902 7.5,7.278 75.96,73.617 11.52,11.984 71.94,74.899 9.62,10.71 73.84,82.18 2.89,3.41 72.26,85.61 8.31,9.85 60.3,75.76 23.17,29.1 42.53,56.5 40.93,54.35 22.31,31.26 44.04,61.64" /><path
         id="path50"
         style="fill:none;stroke:#aac639;stroke-width:5.00250006;stroke-linecap:butt;stroke-linejoin:round;stroke-miterlimit:10;stroke-dasharray:none;stroke-opacity:1"
         d="m 2291.14,1785.55 9.05,13.97 3.18,5.14 52.99,85.59 27.3,44.1 24.6,41.51 50.74,85.6 8.12,13.7 40.87,71.91 42.59,74.9 5.84,10.71 46.76,85.59 30.86,56.51 15.3,29.1 44.99,85.6 23.17,44.09 21.03,41.52 43.36,85.6 19.07,37.67 23.43,47.93 41.83,85.6 18.21,37.24 22.83,48.37" /><path
         id="path52"
         style="fill:none;stroke:#fec337;stroke-width:5.00250006;stroke-linecap:butt;stroke-linejoin:round;stroke-miterlimit:10;stroke-dasharray:none;stroke-opacity:1"
         d="m 547.5,1208.43 83.461,8.98 66.605,11.96" /><path
         id="path54"
         style="fill:none;stroke:#fec337;stroke-width:5.00250006;stroke-linecap:butt;stroke-linejoin:round;stroke-miterlimit:10;stroke-dasharray:none;stroke-opacity:1"
         d="m 995.934,1327.82 52.336,24.42 45.3,24.4 38.16,20.54 83.47,50.93 20.7,14.14 62.76,42.79 56.77,42.8 26.68,20.12 79.32,65.49 4.14,3.43 83.47,74.9 7.5,7.27 75.96,73.62 11.52,11.99 71.94,74.9 9.62,10.69 73.84,82.19 2.89,3.42 53.1,62.9" /><path
         id="path56"
         style="fill:none;stroke:#fec337;stroke-width:5.00250006;stroke-linecap:butt;stroke-linejoin:round;stroke-miterlimit:10;stroke-dasharray:none;stroke-opacity:1"
         d="m 2049.49,2286.61 0.32,0.42 22.31,31.24 61.15,85.61 v 0 l 58.16,85.6 25.3,37.24 31.34,48.37 52.12,80.46 3.18,5.14 52.99,85.6 27.3,44.09 24.6,41.51 50.74,85.61" /><path
         id="path58"
         style="fill:none;stroke:#f9fa14;stroke-width:5.00250006;stroke-linecap:butt;stroke-linejoin:round;stroke-miterlimit:10;stroke-dasharray:none;stroke-opacity:1"
         d="m 547.5,2064.46 83.461,8.99 83.461,14.98 21.402,5.37" /><path
         id="path60"
         style="fill:none;stroke:#f9fa14;stroke-width:5.00250006;stroke-linecap:butt;stroke-linejoin:round;stroke-miterlimit:10;stroke-dasharray:none;stroke-opacity:1"
         d="m 1031.45,2200.43 16.82,7.85 45.3,24.4 38.16,20.54 83.47,50.93 20.7,14.12 62.76,42.8 56.77,42.81 26.68,20.11 79.32,65.49 4.14,3.43 83.47,74.9 7.5,7.28 75.96,73.62 11.52,11.98 71.94,74.9 9.62,10.7 73.84,82.19 2.89,3.41 72.26,85.61" /><g
         transform="scale(10)"
         id="g62"><text
           id="text66"
           style="font-variant:normal;font-weight:normal;font-size:9.99979401px;font-family:Helvetica;-inkscape-font-specification:Helvetica;writing-mode:lr-tb;fill:#000000;fill-opacity:1;fill-rule:nonzero;stroke:none"
           transform="matrix(0.335959,0.941877,0.941877,-0.335959,372.188,51.2313)"><tspan
             id="tspan64"
             y="0"
             x="0 5.5598855 11.119771 16.679655">5000</tspan></text>
<text
           id="text70"
           style="font-variant:normal;font-weight:normal;font-size:9.99975109px;font-family:Helvetica;-inkscape-font-specification:Helvetica;writing-mode:lr-tb;fill:#000000;fill-opacity:1;fill-rule:nonzero;stroke:none"
           transform="matrix(0.36468,0.931133,0.931133,-0.36468,342.599,58.6578)"><tspan
             id="tspan68"
             y="0"
             x="0 5.5598617 11.119723 16.679585">6000</tspan></text>
<text
           id="text74"
           style="font-variant:normal;font-weight:normal;font-size:9.99971294px;font-family:Helvetica;-inkscape-font-specification:Helvetica;writing-mode:lr-tb;fill:#000000;fill-opacity:1;fill-rule:nonzero;stroke:none"
           transform="matrix(0.409855,0.912151,0.912151,-0.409855,304.029,53.6313)"><tspan
             id="tspan72"
             y="0"
             x="0 5.5598402 11.11968 16.679522">7000</tspan></text>
<text
           id="text78"
           style="font-variant:normal;font-weight:normal;font-size:9.99980164px;font-family:Helvetica;-inkscape-font-specification:Helvetica;writing-mode:lr-tb;fill:#000000;fill-opacity:1;fill-rule:nonzero;stroke:none"
           transform="matrix(0.348411,0.937342,0.937342,-0.348411,359.068,186.856)"><tspan
             id="tspan76"
             y="0"
             x="0 5.5598893 11.119779 16.679668">7000</tspan></text>
<text
           id="text82"
           style="font-variant:normal;font-weight:normal;font-size:9.99974155px;font-family:Helvetica;-inkscape-font-specification:Helvetica;writing-mode:lr-tb;fill:#000000;fill-opacity:1;fill-rule:nonzero;stroke:none"
           transform="matrix(0.470774,0.882254,0.882254,-0.470774,262.793,56.4855)"><tspan
             id="tspan80"
             y="0"
             x="0 5.5598564 11.119713 16.679569">8000</tspan></text>
<text
           id="text86"
           style="font-variant:normal;font-weight:normal;font-size:9.99973297px;font-family:Helvetica;-inkscape-font-specification:Helvetica;writing-mode:lr-tb;fill:#000000;fill-opacity:1;fill-rule:nonzero;stroke:none"
           transform="matrix(0.384827,0.922989,0.922989,-0.384827,324.883,186.676)"><tspan
             id="tspan84"
             y="0"
             x="0 5.5598512 11.119702 16.679554">8000</tspan></text>
<text
           id="text90"
           style="font-variant:normal;font-weight:normal;font-size:9.9997263px;font-family:Helvetica;-inkscape-font-specification:Helvetica;writing-mode:lr-tb;fill:#000000;fill-opacity:1;fill-rule:nonzero;stroke:none"
           transform="matrix(0.574228,0.818695,0.818695,-0.574228,208.707,55.5719)"><tspan
             id="tspan88"
             y="0"
             x="0 5.5598478 11.119696 16.679544">9000</tspan></text>
<text
           id="text94"
           style="font-variant:normal;font-weight:normal;font-size:9.99969769px;font-family:Helvetica;-inkscape-font-specification:Helvetica;writing-mode:lr-tb;fill:#000000;fill-opacity:1;fill-rule:nonzero;stroke:none"
           transform="matrix(0.440095,0.897951,0.897951,-0.440095,282.441,179.721)"><tspan
             id="tspan92"
             y="0"
             x="0 5.5598321 11.119664 16.679497">9000</tspan></text>
<text
           id="text98"
           style="font-variant:normal;font-weight:normal;font-size:9.99973583px;font-family:Helvetica;-inkscape-font-specification:Helvetica;writing-mode:lr-tb;fill:#000000;fill-opacity:1;fill-rule:nonzero;stroke:none"
           transform="matrix(0.83512,0.550067,0.550067,-0.83512,113.522,49.4211)"><tspan
             id="tspan96"
             y="0"
             x="0 5.5598531 11.119706 16.67956 22.239412">10000</tspan></text>
<text
           id="text102"
           style="font-variant:normal;font-weight:normal;font-size:9.99970913px;font-family:Helvetica;-inkscape-font-specification:Helvetica;writing-mode:lr-tb;fill:#000000;fill-opacity:1;fill-rule:nonzero;stroke:none"
           transform="matrix(0.555589,0.831457,0.831457,-0.555589,215.955,151.281)"><tspan
             id="tspan100"
             y="0"
             x="0 5.5598383 11.119677 16.679516 22.239353">10000</tspan></text>
<text
           id="text106"
           style="font-variant:normal;font-weight:normal;font-size:9.99980259px;font-family:Helvetica;-inkscape-font-specification:Helvetica;writing-mode:lr-tb;fill:#000000;fill-opacity:1;fill-rule:nonzero;stroke:none"
           transform="matrix(0.949569,0.313559,0.313559,-0.949569,72.5777,119.048)"><tspan
             id="tspan104"
             y="0"
             x="0 5.5598903 11.119781 16.67967 22.239561">11000</tspan></text>
<text
           id="text110"
           style="font-variant:normal;font-weight:normal;font-size:9.99979019px;font-family:Helvetica;-inkscape-font-specification:Helvetica;writing-mode:lr-tb;fill:#000000;fill-opacity:1;fill-rule:nonzero;stroke:none"
           transform="matrix(0.616224,0.787571,0.787571,-0.616224,189.81,202.427)"><tspan
             id="tspan108"
             y="0"
             x="0 5.5598836 11.119767 16.679651 22.239534">11000</tspan></text>
<text
           id="text114"
           style="font-variant:normal;font-weight:normal;font-size:9.99971867px;font-family:Helvetica;-inkscape-font-specification:Helvetica;writing-mode:lr-tb;fill:#000000;fill-opacity:1;fill-rule:nonzero;stroke:none"
           transform="matrix(0.940603,0.339508,0.339508,-0.940603,76.5152,205.563)"><tspan
             id="tspan112"
             y="0"
             x="0 5.5598435 11.119687 16.679531 22.239374">12000</tspan></text>
</g><path
         id="path116"
         style="fill:none;stroke:#262626;stroke-width:5.00250006;stroke-linecap:square;stroke-linejoin:round;stroke-miterlimit:10;stroke-dasharray:none;stroke-opacity:1"
         d="m 547.5,435 h 3255" /><path
         id="path118"
         style="fill:none;stroke:#262626;stroke-width:5.00250006;stroke-linecap:square;stroke-linejoin:round;stroke-miterlimit:10;stroke-dasharray:none;stroke-opacity:1"
         d="m 547.5,2917.5 h 3255" /><path
         id="path120"
         style="fill:none;stroke:#262626;stroke-width:5.00250006;stroke-linecap:square;stroke-linejoin:round;stroke-miterlimit:10;stroke-dasharray:none;stroke-opacity:1"
         d="m 881.348,435 v 32.551" /><path
         id="path122"
         style="fill:none;stroke:#262626;stroke-width:5.00250006;stroke-linecap:square;stroke-linejoin:round;stroke-miterlimit:10;stroke-dasharray:none;stroke-opacity:1"
         d="m 1298.66,435 v 32.551" /><path
         id="path124"
         style="fill:none;stroke:#262626;stroke-width:5.00250006;stroke-linecap:square;stroke-linejoin:round;stroke-miterlimit:10;stroke-dasharray:none;stroke-opacity:1"
         d="m 1715.96,435 v 32.551" /><path
         id="path126"
         style="fill:none;stroke:#262626;stroke-width:5.00250006;stroke-linecap:square;stroke-linejoin:round;stroke-miterlimit:10;stroke-dasharray:none;stroke-opacity:1"
         d="m 2133.27,435 v 32.551" /><path
         id="path128"
         style="fill:none;stroke:#262626;stroke-width:5.00250006;stroke-linecap:square;stroke-linejoin:round;stroke-miterlimit:10;stroke-dasharray:none;stroke-opacity:1"
         d="m 2550.58,435 v 32.551" /><path
         id="path130"
         style="fill:none;stroke:#262626;stroke-width:5.00250006;stroke-linecap:square;stroke-linejoin:round;stroke-miterlimit:10;stroke-dasharray:none;stroke-opacity:1"
         d="m 2967.89,435 v 32.551" /><path
         id="path132"
         style="fill:none;stroke:#262626;stroke-width:5.00250006;stroke-linecap:square;stroke-linejoin:round;stroke-miterlimit:10;stroke-dasharray:none;stroke-opacity:1"
         d="m 3385.19,435 v 32.551" /><path
         id="path134"
         style="fill:none;stroke:#262626;stroke-width:5.00250006;stroke-linecap:square;stroke-linejoin:round;stroke-miterlimit:10;stroke-dasharray:none;stroke-opacity:1"
         d="m 881.348,2917.5 v -32.55" /><path
         id="path136"
         style="fill:none;stroke:#262626;stroke-width:5.00250006;stroke-linecap:square;stroke-linejoin:round;stroke-miterlimit:10;stroke-dasharray:none;stroke-opacity:1"
         d="m 1298.66,2917.5 v -32.55" /><path
         id="path138"
         style="fill:none;stroke:#262626;stroke-width:5.00250006;stroke-linecap:square;stroke-linejoin:round;stroke-miterlimit:10;stroke-dasharray:none;stroke-opacity:1"
         d="m 1715.96,2917.5 v -32.55" /><path
         id="path140"
         style="fill:none;stroke:#262626;stroke-width:5.00250006;stroke-linecap:square;stroke-linejoin:round;stroke-miterlimit:10;stroke-dasharray:none;stroke-opacity:1"
         d="m 2133.27,2917.5 v -32.55" /><path
         id="path142"
         style="fill:none;stroke:#262626;stroke-width:5.00250006;stroke-linecap:square;stroke-linejoin:round;stroke-miterlimit:10;stroke-dasharray:none;stroke-opacity:1"
         d="m 2550.58,2917.5 v -32.55" /><path
         id="path144"
         style="fill:none;stroke:#262626;stroke-width:5.00250006;stroke-linecap:square;stroke-linejoin:round;stroke-miterlimit:10;stroke-dasharray:none;stroke-opacity:1"
         d="m 2967.89,2917.5 v -32.55" /><path
         id="path146"
         style="fill:none;stroke:#262626;stroke-width:5.00250006;stroke-linecap:square;stroke-linejoin:round;stroke-miterlimit:10;stroke-dasharray:none;stroke-opacity:1"
         d="m 3385.19,2917.5 v -32.55" /><g
         transform="scale(10)"
         id="g148"><text
           id="text152"
           style="font-variant:normal;font-weight:normal;font-size:14.00020027px;font-family:Helvetica;-inkscape-font-specification:Helvetica;writing-mode:lr-tb;fill:#262626;fill-opacity:1;fill-rule:nonzero;stroke:none"
           transform="matrix(1,0,0,-1,74.2598,24.45)"><tspan
             id="tspan150"
             y="0"
             x="0 7.784111 11.676167 19.460278 45.855274 53.639385 57.531441 83.46093 91.245041 95.1371 102.92121 129.31662 137.10074 140.9928 166.92229 174.70639 178.59845 186.38257 212.77798 220.56209 224.45415 250.38336 258.16748 262.05951 269.84363">0.050.10.150.20.250.30.35</tspan></text>
</g><path
         id="path154"
         style="fill:#262626;fill-opacity:1;fill-rule:nonzero;stroke:none"
         d="m 2159.41,35.7461 c -4.61,0 -8.73,1.1133 -12.36,3.3359 -3.63,2.2266 -6.42,5.2344 -8.38,9.0235 -1.95,3.789 -2.92,7.9883 -2.92,12.5976 0,4.8477 1.09,9.9649 3.27,15.3555 2.19,5.3906 5.2,10.3086 9.03,14.7578 3.83,4.457 8.14,7.9922 12.95,10.6056 4.8,2.621 9.74,3.93 14.82,3.93 h 39.73 c 1.09,0 2.01,-0.352 2.75,-1.055 0.74,-0.703 1.11,-1.676 1.11,-2.926 0,-1.4843 -0.54,-2.8163 -1.64,-3.9921 -1.09,-1.168 -2.42,-1.7539 -3.98,-1.7539 h -19.22 c 3.05,-4.5312 4.57,-9.9961 4.57,-16.4023 0,-5.2344 -1.03,-10.4141 -3.1,-15.5313 -2.07,-5.1172 -4.93,-9.8047 -8.56,-14.0625 -3.63,-4.2578 -7.87,-7.6328 -12.71,-10.1328 -4.85,-2.5 -9.97,-3.75 -15.36,-3.75 z m 0.24,4.1016 c 5.7,0 10.78,2.2461 15.23,6.7343 4.46,4.4922 7.85,9.9766 10.2,16.4649 2.35,6.4844 3.52,12.5 3.52,18.0508 0,4.5312 -1.25,8.082 -3.75,10.6562 -2.5,2.582 -5.98,3.8711 -10.44,3.8711 -6.09,0 -11.27,-2.0508 -15.52,-6.1484 -4.26,-4.1055 -7.46,-9.2657 -9.62,-15.4727 -2.14,-6.2109 -3.21,-12.168 -3.21,-17.875 0,-4.5273 1.19,-8.375 3.57,-11.543 2.38,-3.1601 5.72,-4.7382 10.02,-4.7382" /><path
         id="path156"
         style="fill:none;stroke:#262626;stroke-width:5.00250006;stroke-linecap:square;stroke-linejoin:round;stroke-miterlimit:10;stroke-dasharray:none;stroke-opacity:1"
         d="M 547.5,435 V 2917.5" /><path
         id="path158"
         style="fill:none;stroke:#262626;stroke-width:5.00250006;stroke-linecap:square;stroke-linejoin:round;stroke-miterlimit:10;stroke-dasharray:none;stroke-opacity:1"
         d="M 3802.5,435 V 2917.5" /><path
         id="path160"
         style="fill:none;stroke:#262626;stroke-width:5.00250006;stroke-linecap:square;stroke-linejoin:round;stroke-miterlimit:10;stroke-dasharray:none;stroke-opacity:1"
         d="m 547.5,777.414 h 32.551" /><path
         id="path162"
         style="fill:none;stroke:#262626;stroke-width:5.00250006;stroke-linecap:square;stroke-linejoin:round;stroke-miterlimit:10;stroke-dasharray:none;stroke-opacity:1"
         d="m 547.5,1205.43 h 32.551" /><path
         id="path164"
         style="fill:none;stroke:#262626;stroke-width:5.00250006;stroke-linecap:square;stroke-linejoin:round;stroke-miterlimit:10;stroke-dasharray:none;stroke-opacity:1"
         d="m 547.5,1633.45 h 32.551" /><path
         id="path166"
         style="fill:none;stroke:#262626;stroke-width:5.00250006;stroke-linecap:square;stroke-linejoin:round;stroke-miterlimit:10;stroke-dasharray:none;stroke-opacity:1"
         d="m 547.5,2061.46 h 32.551" /><path
         id="path168"
         style="fill:none;stroke:#262626;stroke-width:5.00250006;stroke-linecap:square;stroke-linejoin:round;stroke-miterlimit:10;stroke-dasharray:none;stroke-opacity:1"
         d="m 547.5,2489.48 h 32.551" /><path
         id="path170"
         style="fill:none;stroke:#262626;stroke-width:5.00250006;stroke-linecap:square;stroke-linejoin:round;stroke-miterlimit:10;stroke-dasharray:none;stroke-opacity:1"
         d="m 547.5,2917.5 h 32.551" /><path
         id="path172"
         style="fill:none;stroke:#262626;stroke-width:5.00250006;stroke-linecap:square;stroke-linejoin:round;stroke-miterlimit:10;stroke-dasharray:none;stroke-opacity:1"
         d="m 3802.5,777.414 h -32.55" /><path
         id="path174"
         style="fill:none;stroke:#262626;stroke-width:5.00250006;stroke-linecap:square;stroke-linejoin:round;stroke-miterlimit:10;stroke-dasharray:none;stroke-opacity:1"
         d="m 3802.5,1205.43 h -32.55" /><path
         id="path176"
         style="fill:none;stroke:#262626;stroke-width:5.00250006;stroke-linecap:square;stroke-linejoin:round;stroke-miterlimit:10;stroke-dasharray:none;stroke-opacity:1"
         d="m 3802.5,1633.45 h -32.55" /><path
         id="path178"
         style="fill:none;stroke:#262626;stroke-width:5.00250006;stroke-linecap:square;stroke-linejoin:round;stroke-miterlimit:10;stroke-dasharray:none;stroke-opacity:1"
         d="m 3802.5,2061.46 h -32.55" /><path
         id="path180"
         style="fill:none;stroke:#262626;stroke-width:5.00250006;stroke-linecap:square;stroke-linejoin:round;stroke-miterlimit:10;stroke-dasharray:none;stroke-opacity:1"
         d="m 3802.5,2489.48 h -32.55" /><path
         id="path182"
         style="fill:none;stroke:#262626;stroke-width:5.00250006;stroke-linecap:square;stroke-linejoin:round;stroke-miterlimit:10;stroke-dasharray:none;stroke-opacity:1"
         d="m 3802.5,2917.5 h -32.55" /><g
         transform="scale(10)"
         id="g184"><text
           id="text198"
           style="font-variant:normal;font-weight:normal;font-size:14.00020027px;font-family:Helvetica;-inkscape-font-specification:Helvetica;writing-mode:lr-tb;fill:#262626;fill-opacity:1;fill-rule:nonzero;stroke:none"
           transform="matrix(1,0,0,-1,22.2,72.4914)"><tspan
             id="tspan186"
             y="0"
             x="0 7.784111 11.676167 19.460278">0.05</tspan><tspan
             id="tspan188"
             y="-42.801601"
             x="8.25 16.034111 19.926167">0.1</tspan><tspan
             id="tspan190"
             y="-85.6036"
             x="0 7.784111 11.676167 19.460278">0.15</tspan><tspan
             id="tspan192"
             y="-128.4052"
             x="8.25 16.034111 19.926167">0.2</tspan><tspan
             id="tspan194"
             y="-171.2072"
             x="0 7.784111 11.676167 19.460278">0.25</tspan><tspan
             id="tspan196"
             y="-214.0088"
             x="8.25 16.034111 19.926167">0.3</tspan></text>
</g><path
         id="path200"
         style="fill:#262626;fill-opacity:1;fill-rule:nonzero;stroke:none"
         d="m 187.148,1631.84 c -0.625,0 -1.054,0.07 -1.289,0.23 l -92.9254,23.09 c -1.4844,0.47 -2.6992,1.3 -3.6367,2.51 -0.9375,1.22 -1.4063,2.6 -1.4063,4.17 0,1.32 0.3907,2.44 1.1719,3.33 0.7813,0.9 1.8359,1.35 3.1641,1.35 0.3125,0 0.5625,0 0.7578,0 0.1953,0 0.4101,-0.04 0.6445,-0.11 l 36.8051,-9.26 c 4.375,-1.02 8.125,-1.52 11.25,-1.52 3.902,0 7.125,0.91 9.668,2.75 2.535,1.83 3.8,4.62 3.8,8.37 0,7.59 -4.765,14.3 -14.293,20.16 -0.156,0 -0.254,0.02 -0.293,0.07 -0.043,0.04 -0.097,0.06 -0.175,0.06 l -45.7035,11.36 c -1.4062,0.39 -2.5977,1.21 -3.5781,2.46 -0.9727,1.25 -1.461,2.66 -1.461,4.22 0,1.17 0.4102,2.24 1.2305,3.22 0.8203,0.98 1.8945,1.47 3.2227,1.47 0.5468,0 0.9375,-0.08 1.1718,-0.23 l 45.3516,-11.25 c 2.969,-0.79 5.547,-1.18 7.734,-1.18 4.528,0 6.793,1.52 6.793,4.57 0,3.28 -2.031,5.76 -6.089,7.44 -4.067,1.68 -8.989,3.15 -14.766,4.4 -0.547,0.15 -0.82,0.58 -0.82,1.29 v 1.87 c 0,0.39 0.156,0.72 0.464,0.99 0.317,0.28 0.668,0.42 1.059,0.42 7.344,-1.88 13.227,-3.89 17.641,-6.04 4.41,-2.15 6.613,-5.68 6.613,-10.61 0,-3.51 -0.992,-6.62 -2.984,-9.31 -1.997,-2.7 -4.668,-4.43 -8.024,-5.22 3.277,-2.65 5.934,-5.73 7.965,-9.25 2.027,-3.52 3.043,-7.23 3.043,-11.14 0,-6.56 -1.52,-11.71 -4.566,-15.46 l 31.753,-7.97 c 1.485,-0.32 2.7,-1.08 3.637,-2.29 0.938,-1.21 1.406,-2.6 1.406,-4.16 0,-1.25 -0.39,-2.36 -1.171,-3.34 -0.782,-0.98 -1.836,-1.46 -3.165,-1.46" /></g></g></svg>