<svg xmlns="http://www.w3.org/2000/svg" xmlns:xlink="http://www.w3.org/1999/xlink" xmlns:inkscape="http://www.inkscape.org/namespaces/inkscape" version="1.1" width="504" height="288" viewBox="0 0 504 288">
<defs>
<clipPath id="clip_1">
<path transform="matrix(1,0,0,-1,0,288)" d="M59.04 73.44H473.76V228.96H59.04Z"/>
</clipPath>
<clipPath id="clip_2">
<path transform="matrix(1,0,0,-1,0,288)" d="M59.04 73.44H473.76V228.96H59.04Z"/>
</clipPath>
</defs>
<path transform="matrix(1,0,0,-1,0,288)" d="M0 0H504V288H0Z" fill="#ffffff"/>
<g clip-path="url(#clip_1)">
<path transform="matrix(1,0,0,-1,0,288)" stroke-width=".75" stroke-linecap="round" stroke-linejoin="round" fill="none" stroke="#000000" d="M74.4 82.9V223.2"/>
<path transform="matrix(1,0,0,-1,0,288)" stroke-width=".75" stroke-linecap="round" stroke-linejoin="round" fill="none" stroke="#000000" d="M84.78 82.9V119.82"/>
<path transform="matrix(1,0,0,-1,0,288)" stroke-width=".75" stroke-linecap="round" stroke-linejoin="round" fill="none" stroke="#000000" d="M95.16 82.9V126.88"/>
<path transform="matrix(1,0,0,-1,0,288)" stroke-width=".75" stroke-linecap="round" stroke-linejoin="round" fill="none" stroke="#000000" d="M105.54 82.9V121.13"/>
<path transform="matrix(1,0,0,-1,0,288)" stroke-width=".75" stroke-linecap="round" stroke-linejoin="round" fill="none" stroke="#000000" d="M115.91 82.9V119.61"/>
<path transform="matrix(1,0,0,-1,0,288)" stroke-width=".75" stroke-linecap="round" stroke-linejoin="round" fill="none" stroke="#000000" d="M126.29 82.9V128.17"/>
<path transform="matrix(1,0,0,-1,0,288)" stroke-width=".75" stroke-linecap="round" stroke-linejoin="round" fill="none" stroke="#000000" d="M136.67 82.9V121.6"/>
<path transform="matrix(1,0,0,-1,0,288)" stroke-width=".75" stroke-linecap="round" stroke-linejoin="round" fill="none" stroke="#000000" d="M147.05 82.9V120.38"/>
<path transform="matrix(1,0,0,-1,0,288)" stroke-width=".75" stroke-linecap="round" stroke-linejoin="round" fill="none" stroke="#000000" d="M157.43 82.9V118.59"/>
<path transform="matrix(1,0,0,-1,0,288)" stroke-width=".75" stroke-linecap="round" stroke-linejoin="round" fill="none" stroke="#000000" d="M167.81 82.9V118.19"/>
<path transform="matrix(1,0,0,-1,0,288)" stroke-width=".75" stroke-linecap="round" stroke-linejoin="round" fill="none" stroke="#000000" d="M178.18 82.9V117.1"/>
<path transform="matrix(1,0,0,-1,0,288)" stroke-width=".75" stroke-linecap="round" stroke-linejoin="round" fill="none" stroke="#000000" d="M188.56 82.9V119.95"/>
<path transform="matrix(1,0,0,-1,0,288)" stroke-width=".75" stroke-linecap="round" stroke-linejoin="round" fill="none" stroke="#000000" d="M198.94 82.9V114.65"/>
<path transform="matrix(1,0,0,-1,0,288)" stroke-width=".75" stroke-linecap="round" stroke-linejoin="round" fill="none" stroke="#000000" d="M209.32 82.9V112.44"/>
<path transform="matrix(1,0,0,-1,0,288)" stroke-width=".75" stroke-linecap="round" stroke-linejoin="round" fill="none" stroke="#000000" d="M219.7 82.9V112.69"/>
<path transform="matrix(1,0,0,-1,0,288)" stroke-width=".75" stroke-linecap="round" stroke-linejoin="round" fill="none" stroke="#000000" d="M230.08 82.9V112.2"/>
<path transform="matrix(1,0,0,-1,0,288)" stroke-width=".75" stroke-linecap="round" stroke-linejoin="round" fill="none" stroke="#000000" d="M240.45 82.9V113.39"/>
<path transform="matrix(1,0,0,-1,0,288)" stroke-width=".75" stroke-linecap="round" stroke-linejoin="round" fill="none" stroke="#000000" d="M250.83 82.9V113.45"/>
<path transform="matrix(1,0,0,-1,0,288)" stroke-width=".75" stroke-linecap="round" stroke-linejoin="round" fill="none" stroke="#000000" d="M261.21 82.9V114.74"/>
<path transform="matrix(1,0,0,-1,0,288)" stroke-width=".75" stroke-linecap="round" stroke-linejoin="round" fill="none" stroke="#000000" d="M271.59 82.9V110.68"/>
<path transform="matrix(1,0,0,-1,0,288)" stroke-width=".75" stroke-linecap="round" stroke-linejoin="round" fill="none" stroke="#000000" d="M281.97 82.9V111.98"/>
<path transform="matrix(1,0,0,-1,0,288)" stroke-width=".75" stroke-linecap="round" stroke-linejoin="round" fill="none" stroke="#000000" d="M292.35 82.9V111.84"/>
<path transform="matrix(1,0,0,-1,0,288)" stroke-width=".75" stroke-linecap="round" stroke-linejoin="round" fill="none" stroke="#000000" d="M302.72 82.9V108.07"/>
<path transform="matrix(1,0,0,-1,0,288)" stroke-width=".75" stroke-linecap="round" stroke-linejoin="round" fill="none" stroke="#000000" d="M313.1 82.9V110.41"/>
<path transform="matrix(1,0,0,-1,0,288)" stroke-width=".75" stroke-linecap="round" stroke-linejoin="round" fill="none" stroke="#000000" d="M323.48 82.9V109.67"/>
<path transform="matrix(1,0,0,-1,0,288)" stroke-width=".75" stroke-linecap="round" stroke-linejoin="round" fill="none" stroke="#000000" d="M333.86 82.9V109.65"/>
<path transform="matrix(1,0,0,-1,0,288)" stroke-width=".75" stroke-linecap="round" stroke-linejoin="round" fill="none" stroke="#000000" d="M344.24 82.9V108.21"/>
<path transform="matrix(1,0,0,-1,0,288)" stroke-width=".75" stroke-linecap="round" stroke-linejoin="round" fill="none" stroke="#000000" d="M354.62 82.9V115.78"/>
<path transform="matrix(1,0,0,-1,0,288)" stroke-width=".75" stroke-linecap="round" stroke-linejoin="round" fill="none" stroke="#000000" d="M364.99 82.9V108.24"/>
<path transform="matrix(1,0,0,-1,0,288)" stroke-width=".75" stroke-linecap="round" stroke-linejoin="round" fill="none" stroke="#000000" d="M375.37 82.9V112.64"/>
<path transform="matrix(1,0,0,-1,0,288)" stroke-width=".75" stroke-linecap="round" stroke-linejoin="round" fill="none" stroke="#000000" d="M385.75 82.9V106.92"/>
<path transform="matrix(1,0,0,-1,0,288)" stroke-width=".75" stroke-linecap="round" stroke-linejoin="round" fill="none" stroke="#000000" d="M396.13 82.9V106.3"/>
<path transform="matrix(1,0,0,-1,0,288)" stroke-width=".75" stroke-linecap="round" stroke-linejoin="round" fill="none" stroke="#000000" d="M406.51 82.9V113.23"/>
<path transform="matrix(1,0,0,-1,0,288)" stroke-width=".75" stroke-linecap="round" stroke-linejoin="round" fill="none" stroke="#000000" d="M416.89 82.9V109.44"/>
<path transform="matrix(1,0,0,-1,0,288)" stroke-width=".75" stroke-linecap="round" stroke-linejoin="round" fill="none" stroke="#000000" d="M427.26 82.9V110.14"/>
<path transform="matrix(1,0,0,-1,0,288)" stroke-width=".75" stroke-linecap="round" stroke-linejoin="round" fill="none" stroke="#000000" d="M437.64 82.9V106.62"/>
<path transform="matrix(1,0,0,-1,0,288)" stroke-width=".75" stroke-linecap="round" stroke-linejoin="round" fill="none" stroke="#000000" d="M448.02 82.9V106.26"/>
<path transform="matrix(1,0,0,-1,0,288)" stroke-width=".75" stroke-linecap="round" stroke-linejoin="round" fill="none" stroke="#000000" d="M458.4 82.9V107.2"/>
</g>
<path transform="matrix(1,0,0,-1,0,288)" stroke-width=".75" stroke-linecap="round" stroke-linejoin="round" fill="none" stroke="#000000" d="M74.4 73.44H385.75"/>
<path transform="matrix(1,0,0,-1,0,288)" stroke-width=".75" stroke-linecap="round" stroke-linejoin="round" fill="none" stroke="#000000" d="M74.4 73.44V66.24"/>
<path transform="matrix(1,0,0,-1,0,288)" stroke-width=".75" stroke-linecap="round" stroke-linejoin="round" fill="none" stroke="#000000" d="M178.18 73.44V66.24"/>
<path transform="matrix(1,0,0,-1,0,288)" stroke-width=".75" stroke-linecap="round" stroke-linejoin="round" fill="none" stroke="#000000" d="M281.97 73.44V66.24"/>
<path transform="matrix(1,0,0,-1,0,288)" stroke-width=".75" stroke-linecap="round" stroke-linejoin="round" fill="none" stroke="#000000" d="M385.75 73.44V66.24"/>
<text xml:space="preserve" transform="matrix(1 0 -0 1 0 288)" font-size="12" font-family="Nimbus Sans"><tspan y="-47.52" x="71.06">0</tspan></text>
<text xml:space="preserve" transform="matrix(1 0 -0 1 0 288)" font-size="12" font-family="Nimbus Sans"><tspan y="-47.52" x="171.51 178.18199">10</tspan></text>
<text xml:space="preserve" transform="matrix(1 0 -0 1 0 288)" font-size="12" font-family="Nimbus Sans"><tspan y="-47.52" x="275.3 281.972">20</tspan></text>
<text xml:space="preserve" transform="matrix(1 0 -0 1 0 288)" font-size="12" font-family="Nimbus Sans"><tspan y="-47.52" x="379.08 385.75199">30</tspan></text>
<path transform="matrix(1,0,0,-1,0,288)" stroke-width=".75" stroke-linecap="round" stroke-linejoin="round" fill="none" stroke="#000000" d="M59.04 82.9V223.2"/>
<path transform="matrix(1,0,0,-1,0,288)" stroke-width=".75" stroke-linecap="round" stroke-linejoin="round" fill="none" stroke="#000000" d="M59.04 82.9H51.84"/>
<path transform="matrix(1,0,0,-1,0,288)" stroke-width=".75" stroke-linecap="round" stroke-linejoin="round" fill="none" stroke="#000000" d="M59.04 110.96H51.84"/>
<path transform="matrix(1,0,0,-1,0,288)" stroke-width=".75" stroke-linecap="round" stroke-linejoin="round" fill="none" stroke="#000000" d="M59.04 139.02H51.84"/>
<path transform="matrix(1,0,0,-1,0,288)" stroke-width=".75" stroke-linecap="round" stroke-linejoin="round" fill="none" stroke="#000000" d="M59.04 167.08H51.84"/>
<path transform="matrix(1,0,0,-1,0,288)" stroke-width=".75" stroke-linecap="round" stroke-linejoin="round" fill="none" stroke="#000000" d="M59.04 195.14H51.84"/>
<path transform="matrix(1,0,0,-1,0,288)" stroke-width=".75" stroke-linecap="round" stroke-linejoin="round" fill="none" stroke="#000000" d="M59.04 223.2H51.84"/>
<text xml:space="preserve" transform="matrix(0 -1 1 0 0 288)" font-size="12" font-family="Nimbus Sans"><tspan y="41.76" x="74.56 81.231998 84.56799">0.0</tspan></text>
<text xml:space="preserve" transform="matrix(0 -1 1 0 0 288)" font-size="12" font-family="Nimbus Sans"><tspan y="41.76" x="102.62 109.29201 112.628009">0.2</tspan></text>
<text xml:space="preserve" transform="matrix(0 -1 1 0 0 288)" font-size="12" font-family="Nimbus Sans"><tspan y="41.76" x="130.68 137.35199 140.68799">0.4</tspan></text>
<text xml:space="preserve" transform="matrix(0 -1 1 0 0 288)" font-size="12" font-family="Nimbus Sans"><tspan y="41.76" x="158.74 165.412 168.748">0.6</tspan></text>
<text xml:space="preserve" transform="matrix(0 -1 1 0 0 288)" font-size="12" font-family="Nimbus Sans"><tspan y="41.76" x="186.8 193.472 196.808">0.8</tspan></text>
<text xml:space="preserve" transform="matrix(0 -1 1 0 0 288)" font-size="12" font-family="Nimbus Sans"><tspan y="41.76" x="214.86 221.532 224.868">1.0</tspan></text>
<path transform="matrix(1,0,0,-1,0,288)" stroke-width=".75" stroke-linecap="round" stroke-linejoin="round" fill="none" stroke="#000000" d="M59.04 73.44H473.76V228.96H59.04V73.44"/>
<text xml:space="preserve" transform="matrix(1 0 -0 1 0 288)" font-size="12" font-family="Nimbus Sans"><tspan y="-18.72" x="256.39 263.062 269.734">Lag</tspan></text>
<text xml:space="preserve" transform="matrix(0 -1 1 0 0 288)" font-size="12" font-family="Nimbus Sans"><tspan y="12.96" x="139.38 147.024 155.688">ACF</tspan></text>
<g clip-path="url(#clip_2)">
<path transform="matrix(1,0,0,-1,0,288)" stroke-width=".75" stroke-linecap="round" stroke-linejoin="round" fill="none" stroke="#000000" d="M59.04 82.9H473.76"/>
<path transform="matrix(1,0,0,-1,0,288)" stroke-width=".75" stroke-linecap="round" stroke-dasharray="2.25,3.75" stroke-linejoin="round" fill="none" stroke="#0000ff" d="M59.04 86.6H473.76"/>
<path transform="matrix(1,0,0,-1,0,288)" stroke-width=".75" stroke-linecap="round" stroke-dasharray="2.25,3.75" stroke-linejoin="round" fill="none" stroke="#0000ff" d="M59.04 79.2H473.76"/>
</g>
<text xml:space="preserve" transform="matrix(1 0 -0 1 0 288)" font-size="14" font-family="Nimbus Sans" font-weight="bold"><tspan y="-257.76" x="138.31 147.858 157.966 166.52 170.412 178.966 183.628 187.52 192.182 196.074 204.628 212.412 220.966 228.75 232.642 240.426 244.318 248.20999 255.99399 264.54798 272.33198 280.88597 284.77796 293.33195 297.99394 305.77793 309.66993 315.11595 322.89994 327.56193 336.1159 341.56193 350.1159 354.0079 361.7919 369.5759 375.0219 378.9139 386.6979">ACF of financial absolute return series</tspan></text>
</svg>
